<?xml version="1.0" encoding="UTF-8" standalone="no"?>
<!-- Created with Inkscape (http://www.inkscape.org/) -->

<svg
   xmlns:dc="http://purl.org/dc/elements/1.1/"
   xmlns:cc="http://creativecommons.org/ns#"
   xmlns:rdf="http://www.w3.org/1999/02/22-rdf-syntax-ns#"
   xmlns:svg="http://www.w3.org/2000/svg"
   xmlns="http://www.w3.org/2000/svg"
   xmlns:sodipodi="http://sodipodi.sourceforge.net/DTD/sodipodi-0.dtd"
   xmlns:inkscape="http://www.inkscape.org/namespaces/inkscape"
   width="90"
   height="150"
   viewBox="0 0 23.8125 39.687501"
   version="1.1"
   id="svg8"
   inkscape:version="0.92.2 (5c3e80d, 2017-08-06)"
   sodipodi:docname="controller.svg">
  <defs
     id="defs2" />
  <sodipodi:namedview
     id="base"
     pagecolor="#ffffff"
     bordercolor="#666666"
     borderopacity="1.0"
     inkscape:pageopacity="0.0"
     inkscape:pageshadow="2"
     inkscape:zoom="0.49497475"
     inkscape:cx="309.16215"
     inkscape:cy="604.34742"
     inkscape:document-units="mm"
     inkscape:current-layer="layer2"
     showgrid="false"
     inkscape:window-width="1920"
     inkscape:window-height="1017"
     inkscape:window-x="-8"
     inkscape:window-y="-8"
     inkscape:window-maximized="1"
     units="px" />
  <metadata
     id="metadata5">
    <rdf:RDF>
      <cc:Work
         rdf:about="">
        <dc:format>image/svg+xml</dc:format>
        <dc:type
           rdf:resource="http://purl.org/dc/dcmitype/StillImage" />
        <dc:title></dc:title>
      </cc:Work>
    </rdf:RDF>
  </metadata>
  <g
     inkscape:label="Layer 1"
     inkscape:groupmode="layer"
     id="layer1"
     transform="translate(0,-257.31245)" />
  <g
     inkscape:groupmode="layer"
     id="layer2"
     inkscape:label="Layer 2"
     transform="translate(0,-257.31245)">
    <path
       style="opacity:1;fill:none;fill-opacity:1;stroke:#000000;stroke-width:1.88976383;stroke-miterlimit:4;stroke-dasharray:none;stroke-opacity:1"
       d="m 257.5,509.3054 -7.14286,62.85714 42.5,-0.35714 -8.92857,-38.21429 -3.57143,-1.78571 -3.92857,-2.5 -6.07143,-5.71429 -5,-5.35714 -5.71428,-6.07143 z"
       id="path22"
       inkscape:connector-curvature="0"
       transform="matrix(0.26458333,0,0,0.26458333,-65.463949,142.45466)" />
    <path
       style="opacity:1;fill:none;fill-opacity:1;stroke:#000000;stroke-width:1.88976383;stroke-miterlimit:4;stroke-dasharray:none;stroke-opacity:1"
       d="m 255.71429,500.37683 3.75,6.875 3.66071,5.26785 5.53571,6.42857 7.23215,6.60715 8.125,4.82143 11.33928,3.92857 7.76786,0.35714 9.10714,-1.42857 -2.32142,-2.41072 -4.73215,-3.66071 c 0,0 -2.5,-2.85714 -2.76785,-3.21429 -0.26786,-0.35714 -8.75,-11.42857 -8.75,-11.42857 l -7.45536,-12.94643 -14.95536,-30.62499 -1.78571,-24.28572 -8.75,7.67857 -3.39286,5.89286 c 0,0 -2.14286,4.64286 -2.5,6.07143 -0.35714,1.42857 -2.14286,7.14286 -2.14286,7.14286 l -0.35714,8.21428 0.53571,10.17857 z"
       id="path24"
       inkscape:connector-curvature="0"
       transform="matrix(0.26458333,0,0,0.26458333,-65.463949,142.45466)" />
    <path
       style="opacity:1;fill:none;fill-opacity:1;stroke:#000000;stroke-width:1.88976383;stroke-miterlimit:4;stroke-dasharray:none;stroke-opacity:1"
       d="m 286.12571,496.73018 39.01714,-21.59201 3.15673,2.52538 h 3.53553 l 3.03046,-2.0203 1.76777,-3.283 -0.37881,-4.29315 -1.6415,-2.52538 -3.03046,-1.76776 c 0,0 -4.04061,0.50507 -4.54568,0.50507 -0.50508,0 -3.53554,2.90419 -3.53554,2.90419 l -0.50507,2.90419 -41.6688,16.79378 z"
       id="path26"
       inkscape:connector-curvature="0"
       transform="matrix(0.26458333,0,0,0.26458333,-65.463949,142.45466)" />
    <path
       style="opacity:1;fill:none;fill-opacity:1;stroke:#000000;stroke-width:1.88976383;stroke-miterlimit:4;stroke-dasharray:none;stroke-opacity:1"
       d="m 271.41536,445.78061 -0.25254,3.15673 c 0,0 0,3.4724 0.12627,3.78807 0.12627,0.31567 0.50508,3.53554 0.50508,3.91434 0,0.37881 0.69448,5.68211 0.69448,5.68211 l 2.58852,8.14436 3.47239,7.70241 2.33598,6.12405 22.4759,-8.08122 -2.08344,-4.60882 -2.65165,-4.67196 -3.66181,-5.87151 -6.18718,-8.39689 -7.07107,-7.89182 -4.41942,-2.52538 -3.21986,-0.12627 -1.95717,1.95717 z"
       id="path28"
       inkscape:connector-curvature="0"
       transform="matrix(0.26458333,0,0,0.26458333,-65.330314,142.37114)" />
    <path
       style="opacity:1;fill:none;fill-opacity:1;stroke:#000000;stroke-width:1.88976383;stroke-miterlimit:4;stroke-dasharray:none;stroke-opacity:1"
       d="m 309.10668,486.88119 -20.89239,11.0626 6.78571,13.32589 5.71429,8.57143 7.32143,6.07143 5.89285,5.35714 4.10715,-0.89285 1.78571,-5.26786 0.26786,-6.33929 -1.96429,-10.17857 -5.98214,-13.57143 -2.58929,-8.30357 z"
       id="path30"
       inkscape:connector-curvature="0"
       transform="matrix(0.26458333,0,0,0.26458333,-64.992462,142.6217)" />
  </g>
</svg>
