<?xml version="1.0" encoding="UTF-8" standalone="no"?>
<svg
   xmlns:dc="http://purl.org/dc/elements/1.1/"
   xmlns:cc="http://creativecommons.org/ns#"
   xmlns:rdf="http://www.w3.org/1999/02/22-rdf-syntax-ns#"
   xmlns:svg="http://www.w3.org/2000/svg"
   xmlns="http://www.w3.org/2000/svg"
   xmlns:xlink="http://www.w3.org/1999/xlink"
   xmlns:sodipodi="http://sodipodi.sourceforge.net/DTD/sodipodi-0.dtd"
   xmlns:inkscape="http://www.inkscape.org/namespaces/inkscape"
   width="255px"
   height="49px"
   viewBox="0 0 255 49"
   version="1.1"
   id="svg61"
   sodipodi:docname="system.svg"
   inkscape:version="0.92.2 (5c3e80d, 2017-08-06)">
  <metadata
     id="metadata65">
    <rdf:RDF>
      <cc:Work
         rdf:about="">
        <dc:format>image/svg+xml</dc:format>
        <dc:type
           rdf:resource="http://purl.org/dc/dcmitype/StillImage" />
      </cc:Work>
    </rdf:RDF>
  </metadata>
  <sodipodi:namedview
     pagecolor="#ffffff"
     bordercolor="#666666"
     borderopacity="1"
     objecttolerance="10"
     gridtolerance="10"
     guidetolerance="10"
     inkscape:pageopacity="0"
     inkscape:pageshadow="2"
     inkscape:window-width="1920"
     inkscape:window-height="1017"
     id="namedview63"
     showgrid="false"
     inkscape:zoom="4.454902"
     inkscape:cx="100.71383"
     inkscape:cy="28.544561"
     inkscape:window-x="-8"
     inkscape:window-y="-8"
     inkscape:window-maximized="1"
     inkscape:current-layer="svg61" />
  <!-- Generator: Sketch 42 (36781) - http://www.bohemiancoding.com/sketch -->
  <title
     id="title2">parsec_tnw_logo_transparent</title>
  <desc
     id="desc4">Created with Sketch.</desc>
  <defs
     id="defs9">
    <polygon
       id="path-1"
       points="15.9871877 40.6846783 -5.54629924e-05 40.6846783 -5.54629924e-05 0.44442187 15.9871877 0.44442187 31.9744309 0.44442187 31.9744309 40.6846783" />
    <polygon
       id="path-3"
       points="26.8561855 0.44442187 0.380451334 0.44442187 0.380451334 32.8250132 26.8561855 32.8250132" />
    <polygon
       id="path-5"
       points="30.772324 32.82545 30.772324 0.444567454 0.102257209 0.444567454 0.102257209 32.82545" />
  </defs>
  <g
     id="g59"
     stroke="none"
     stroke-width="1"
     fill="none"
     fill-rule="evenodd">
    <g
       id="Artboard"
       transform="translate(0.000000, -33.000000)">
      <g
         id="parsec_tnw_logo_transparent"
         transform="translate(0.000000, 33.000000)">
        <g
           id="Page-1">
          <g
             id="parsec-logo-left-aligned-black">
            <g
               id="parsec-logo-blue"
               transform="translate(76.884422, 3.044990)">
              <g
                 id="Group-3"
                 transform="translate(-0.000000, 0.360514)">
                <g
                   id="Fill-1-Clipped">
                  <mask
                     id="mask-2"
                     fill="white">
                    <use
                       xlink:href="#path-1"
                       id="use11" />
                  </mask>
                  <g
                     id="g14" />
                  <path
                     d="M23.2705482,16.8721657 L23.2705482,16.3975606 C23.2705482,10.1112261 20.1911936,7.02702056 15.8690501,7.02702056 C11.3688462,7.02702056 8.28949157,10.1701878 8.28949157,16.3975606 L8.28949157,16.8721657 C8.28949157,23.0995385 11.2503816,26.1233265 15.927919,26.1233265 C20.6643255,26.1233265 23.2705482,22.9211976 23.2705482,16.8721657 M0.680862014,1.15632959 L7.90502649,1.15632959 C8.28077026,1.15632959 8.58528986,1.46132892 8.58528986,1.83766459 L8.58528986,6.01957653 C10.3026642,3.05402226 13.9147464,0.44442187 18.4738193,0.44442187 C26.0533778,0.44442187 31.9744309,6.07853822 31.9744309,16.3385989 L31.9744309,16.813204 C31.9744309,27.0725368 26.1718424,32.8253044 18.4738193,32.8253044 C13.6778171,32.8253044 10.1841995,30.4530066 8.58528986,27.4284907 L8.58528986,40.0033433 C8.58528986,40.379679 8.28077026,40.6846783 7.90502649,40.6846783 L0.680862014,40.6846783 C0.304391469,40.6846783 -0.000128140704,40.379679 -0.000128140704,40.0033433 L-0.000128140704,1.83766459 C-0.000128140704,1.46132892 0.304391469,1.15632959 0.680862014,1.15632959"
                     id="Fill-1"
                     fill="#1BB9EC"
                     fill-rule="nonzero"
                     mask="url(#mask-2)" />
                </g>
              </g>
              <path
                 d="M53.5254798,21.6805746 L53.5254798,19.7530371 C53.5254798,19.3767015 53.2209602,19.0709742 52.8452166,19.0709742 L50.2091958,19.0709742 C45.2351333,19.0709742 42.3338391,20.1381079 42.3338391,23.459616 C42.3338391,25.7132625 43.6958194,27.1960397 46.8340429,27.1960397 C50.6234589,27.1960397 53.5254798,25.1200061 53.5254798,21.6805746 M33.9264815,23.9334932 C33.9264815,16.6986764 40.5575959,13.9711526 50.0318625,13.9711526 L52.8452166,13.9711526 C53.2209602,13.9711526 53.5254798,13.6654254 53.5254798,13.2890897 L53.5254798,12.7256781 C53.5254798,9.04821609 52.4004289,7.03187215 48.4925484,7.03187215 C45.3441501,7.03187215 43.7932076,8.52775188 43.3106276,10.8942263 C43.2466712,11.2043211 42.9646817,11.4205139 42.6485336,11.4205139 L35.861889,11.4205139 C35.4592545,11.4205139 35.1336583,11.0711114 35.1838059,10.6707542 C36.0472171,3.84430168 41.7080841,0.805227302 49.0245493,0.805227302 C56.6041079,0.805227302 61.992433,3.88870492 61.992433,12.3100346 L61.992433,31.8518288 C61.992433,32.2281645 61.6879138,32.5331638 61.3121698,32.5331638 L54.324208,32.5331638 C53.9484644,32.5331638 53.6439447,32.2281645 53.6439447,31.8518288 L53.6439447,28.7967401 C51.8669747,31.2876892 49.1437408,33.1861099 44.2881428,33.1861099 C38.662888,33.1861099 33.9264815,30.4578582 33.9264815,23.9334932"
                 id="Fill-4"
                 fill="#1BB9EC"
                 fill-rule="nonzero" />
              <path
                 d="M65.8686262,1.51655269 L73.0935177,1.51655269 C73.4692614,1.51655269 73.773781,1.82155201 73.773781,2.19788768 L73.773781,7.44693325 C75.6350572,3.49431678 78.4614934,1.31491829 83.072894,1.06524104 C83.4580857,1.0441313 83.7807749,1.36223322 83.7807749,1.74875981 L83.7807749,8.36993839 C83.7807749,8.74554612 83.4762552,9.04472209 83.1019653,9.05054544 C77.1830922,9.1451753 73.773781,11.2794426 73.773781,16.9950862 L73.773781,31.8519744 C73.773781,32.22831 73.4692614,32.5333094 73.0935177,32.5333094 L65.8686262,32.5333094 C65.4928826,32.5333094 65.1883629,32.22831 65.1883629,31.8519744 L65.1883629,2.19788768 C65.1883629,1.82155201 65.4928826,1.51655269 65.8686262,1.51655269"
                 id="Fill-6"
                 fill="#1BB9EC"
                 fill-rule="nonzero" />
              <g
                 id="Group-10"
                 transform="translate(85.048611, 0.360514)">
                <g
                   id="Fill-8-Clipped">
                  <mask
                     id="mask-4"
                     fill="white">
                    <use
                       xlink:href="#path-3"
                       id="use21" />
                  </mask>
                  <g
                     id="g24" />
                  <path
                     d="M1.06068555,22.4470292 L7.74267431,22.4470292 C8.06245623,22.4470292 8.34735288,22.6697733 8.40694859,22.9842356 C8.86917883,25.4387886 10.287121,26.835671 13.7705637,26.835671 C17.0861209,26.835671 18.6254348,25.5901964 18.6254348,23.4544732 C18.6254348,21.3202059 16.7903226,20.4299573 12.3489876,19.7777392 C4.11823686,18.5322646 0.921144349,16.1606947 0.921144349,10.110935 C0.921144349,3.64698753 6.84292423,0.444130701 13.1782403,0.444130701 C19.7802836,0.444130701 24.7964992,2.74582009 25.8590474,9.24397982 C25.9280912,9.66471876 25.6141235,10.0519733 25.1882321,10.0519733 L18.6385168,10.0519733 C18.3347239,10.0519733 18.0600022,9.8517947 17.9851441,9.55698631 C17.4218919,7.34774299 15.9995891,6.31554962 13.237836,6.31554962 C10.4542797,6.31554962 8.85609683,7.61998582 8.85609683,9.51767849 C8.85609683,11.4750608 10.335815,12.2466581 14.8360189,12.8988762 C22.5936378,14.0249716 26.8561855,15.9823539 26.8561855,22.6246422 C26.8561855,29.3258921 22.0013145,32.8250132 13.8294326,32.8250132 C5.80435978,32.8250132 1.00690405,29.4278012 0.384056063,23.2128031 C0.343356545,22.8051668 0.652236816,22.4470292 1.06068555,22.4470292"
                     id="Fill-8"
                     fill="#1BB9EC"
                     fill-rule="nonzero"
                     mask="url(#mask-4)" />
                </g>
              </g>
              <path
                 d="M136.357648,13.6740876 C136.061123,8.98918165 133.693283,6.73553511 129.607342,6.73553511 C125.758331,6.73553511 123.153562,9.28544588 122.501643,13.6740876 L136.357648,13.6740876 Z M113.679295,17.4105113 L113.679295,16.9359062 C113.679295,7.15045062 120.606935,0.805154512 129.607342,0.805154512 C137.601164,0.805154512 144.706137,5.49006055 144.706137,16.5806802 L144.706137,18.952978 L122.383905,18.952978 C122.620107,24.1124892 125.403664,27.0773155 130.081201,27.0773155 C133.800119,27.0773155 135.750062,25.5661495 136.418697,23.2266082 C136.500823,22.9376231 136.779179,22.7483634 137.080065,22.7483634 L143.830371,22.7483634 C144.26789,22.7483634 144.586945,23.1559997 144.496098,23.5847458 C143.182812,29.7597082 137.952924,33.1860371 129.844272,33.1860371 C120.48847,33.1860371 113.679295,27.3146181 113.679295,17.4105113 L113.679295,17.4105113 Z"
                 id="Fill-11"
                 fill="#1BB9EC"
                 fill-rule="nonzero" />
              <g
                 id="Group-15"
                 transform="translate(146.556148, 0.360514)">
                <g
                   id="Fill-13-Clipped">
                  <mask
                     id="mask-6"
                     fill="white">
                    <use
                       xlink:href="#path-5"
                       id="use30" />
                  </mask>
                  <g
                     id="g33" />
                  <path
                     d="M0.102257209,17.0499243 L0.102257209,16.5753191 C0.102257209,6.55256101 7.26682599,0.444567454 16.0891733,0.444567454 C23.0473374,0.444567454 29.5025717,3.40866586 30.5745679,11.7266306 C30.6261691,12.1291715 30.3020265,12.4836695 29.8964849,12.4836695 L23.1054795,12.4836695 C22.7791566,12.4836695 22.5087956,12.2492786 22.4375714,11.9311767 C21.7187888,8.69629131 19.5777034,7.20550706 16.2672337,7.20550706 C11.8266255,7.20550706 8.86573561,10.5262873 8.86573561,16.4566678 L8.86573561,16.931273 C8.86573561,23.1586457 11.6485652,26.3607747 16.4452941,26.3607747 C19.7070698,26.3607747 22.3823363,24.5416975 22.996463,20.9523142 C23.0531516,20.6211096 23.3264198,20.3707045 23.6621908,20.3707045 L30.0898076,20.3707045 C30.489535,20.3707045 30.8129508,20.7157395 30.7686174,21.1131849 C29.9931463,28.0662959 24.7240122,32.82545 16.0303044,32.82545 C6.9710277,32.82545 0.102257209,27.1913337 0.102257209,17.0499243"
                     id="Fill-13"
                     fill="#1BB9EC"
                     fill-rule="nonzero"
                     mask="url(#mask-6)" />
                </g>
              </g>
            </g>
            <g
               id="Logo"
               fill-rule="nonzero"
               fill="#1BB9EC">
              <g
                 id="g41"
                 transform="translate(0.000000, 21.414942)">
                <path
                   d="M54.9449908,0.190167251 L50.3273127,0.190167251 L48.0976645,0.190167251 L42.5781317,0.190167251 L39.0637447,0.190167251 L28.8042874,0.190167251 L27.4326693,0.190167251 L26.5738704,0.190167251 L25.8573075,0.190167251 L25.006197,0.190167251 L23.6268905,0.190167251 L21.4602874,0.190167251 L5.84275479,0.190167251 L9.56626732,0.190167251 L7.34430753,0.190167251 L2.71048342,0.190167251 C1.22123216,0.190167251 0.000307537688,1.25459566 0.000307537688,2.58455057 C0.000307537688,3.92302091 1.22123216,5.00293193 2.71048342,5.00293193 L7.34430753,5.00293193 L10.4173779,5.00293193 L10.9294281,5.00293193 L7.41119697,5.00293193 L7.78869951,5.00293193 L21.6970914,5.00293193 L22.7757799,5.00293193 L25.006197,5.00293193 L25.8573075,5.00293193 L26.5738704,5.00293193 L27.4326693,5.00293193 L29.655398,5.00293193 L38.8346292,5.00293193 L40.6314181,5.00293193 L41.0089206,5.00293193 L42.8064784,5.00293193 L47.2388655,5.00293193 L50.3196243,5.00293193 L54.9449908,5.00293193 C56.4419306,5.00293193 57.6636243,3.92302091 57.6636243,2.58455057 C57.6636243,1.25459566 56.4342423,0.190167251 54.9449908,0.190167251"
                   id="path39" />
              </g>
              <path
                 d="M16.3818407,48.0313451 L17.9495141,48.0313451 L20.1799312,48.0313451 L19.297298,48.0313451 L38.9412679,48.0313451 L40.5489211,48.0313451 L39.7216447,48.0313451 L41.2893181,48.0313451 C42.7785693,48.0313451 44.0002628,46.9591752 44.0002628,45.6369614 C44.0002628,44.3077808 42.7862578,43.2193544 41.2893181,43.2193544 L39.7131874,43.2193544 L39.6978106,43.2193544 L39.1857603,43.2193544 L37.3812829,43.2193544 L37.0107,43.2193544 L19.0689513,43.2193544 L37.1767704,43.2193544 L17.9579714,43.2193544 L16.3818407,43.2193544 C14.884901,43.2193544 13.6632075,44.3077808 13.6632075,45.6369614 C13.6632075,46.9591752 14.884901,48.0313451 16.3818407,48.0313451"
                 id="path43" />
              <path
                 d="M6.16190201,37.229061 L7.73803268,37.229061 L9.95999247,37.229061 L14.4469673,37.229061 L13.9195402,37.229061 L15.5187362,37.229061 L17.740696,37.229061 L19.3168266,37.229061 C20.8060779,37.229061 22.0200829,36.1483758 22.0200829,34.8269363 C22.0200829,33.4969814 20.8137663,32.4077808 19.3168266,32.4077808 L17.740696,32.4077808 L14.6599372,32.4077808 L14.1478869,32.4077808 L16.3852236,32.4077808 L16.0069523,32.4077808 L14.2109321,32.4077808 L7.00916835,32.4077808 L7.73803268,32.4077808 L6.16190201,32.4077808 C4.65650504,32.4077808 3.45172613,33.4969814 3.45172613,34.8269363 C3.45172613,36.1483758 4.67265074,37.229061 6.16190201,37.229061"
                 id="path45" />
              <path
                 d="M47.1792032,37.229061 L48.7468764,37.229061 L45.6545848,37.229061 L51.2571528,37.229061 L47.9911025,37.229061 L49.5826103,37.229061 L49.9247458,37.229061 L51.4931881,37.229061 C52.9824391,37.229061 54.2118211,36.1483758 54.2118211,34.8269363 C54.2118211,33.4969814 52.9985848,32.4077808 51.4931881,32.4077808 L49.9247458,32.4077808 L48.7314997,32.4077808 L48.2194493,32.4077808 L46.4303485,32.4077808 L46.0443891,32.4077808 L51.0280374,32.4077808 L49.9408916,32.4077808 L48.7553338,32.4077808 L47.1792032,32.4077808 C45.6822634,32.4077808 44.4690272,33.4969814 44.4690272,34.8269363 C44.4690272,36.1483758 45.6899518,37.229061 47.1792032,37.229061"
                 id="path47" />
              <path
                 d="M31.8612889,37.229061 L34.8951482,37.229061 C36.3843995,37.229061 37.606093,36.1483758 37.606093,34.8269363 C37.606093,33.4969814 36.3920879,32.4077808 34.8951482,32.4077808 L31.8612889,32.4077808 C30.3643493,32.4077808 29.1511131,33.4969814 29.1511131,34.8269363 C29.1511131,36.1483758 30.3720377,37.229061 31.8612889,37.229061"
                 id="Fill-10" />
              <path
                 d="M41.2892412,0 L39.7215679,0 L37.4911507,0 L38.3745527,0 L37.9170905,0 L20.1798543,0 L17.9417487,0 L16.3733066,0 C14.8848241,0 13.6631307,1.07216971 13.6631307,2.38509377 C13.6631307,3.72356411 14.8763668,4.80424924 16.3733066,4.80424924 L17.9578945,4.80424924 L37.1682362,4.80424924 L37.672598,4.80424924 L20.2821106,4.80424924 L20.6526934,4.80424924 L38.6021307,4.80424924 L39.6977337,4.80424924 L39.7131106,4.80424924 L41.2892412,4.80424924 C42.7784925,4.80424924 44.0001859,3.72356411 44.0001859,2.38509377 C44.0001859,1.07216971 42.7784925,0 41.2892412,0"
                 id="Fill-12" />
              <path
                 d="M51.501645,15.6152035 L49.9247458,15.6152035 L47.7027859,15.6152035 L43.2073538,15.6152035 L43.744007,15.6152035 L42.1440422,15.6152035 L39.914394,15.6152035 L38.3382633,15.6152035 C36.8490121,15.6152035 35.6357759,14.5345183 35.6357759,13.2130788 C35.6357759,11.8831239 36.8490121,10.7939234 38.3382633,10.7939234 L39.914394,10.7939234 L42.9951527,10.7939234 L43.507203,10.7939234 L41.2690975,10.7939234 L41.6473688,10.7939234 L43.4441578,10.7939234 L45.323213,10.7939234 L49.9170574,10.7939234 L51.501645,10.7939234 C52.9985848,10.7939234 54.2118211,11.8831239 54.2118211,13.2130788 C54.2118211,14.5345183 52.9908965,15.6152035 51.501645,15.6152035"
                 id="Fill-14" />
              <path
                 d="M10.483806,15.6152035 L8.91613268,15.6152035 L10.7121527,15.6152035 L6.39816786,15.6152035 L9.67267539,15.6152035 L8.07271057,15.6152035 L7.73749447,15.6152035 L6.16982109,15.6152035 C4.68056986,15.6152035 3.45118794,14.5345183 3.45118794,13.2130788 C3.45118794,11.8831239 4.66519296,10.7939234 6.16982109,10.7939234 L7.73749447,10.7939234 L8.92382109,10.7939234 L9.43587138,10.7939234 L11.2318914,10.7939234 L11.6101628,10.7939234 L6.63497187,10.7939234 L7.72211757,10.7939234 L8.90767539,10.7939234 L10.483806,10.7939234 C11.9730573,10.7939234 13.1939819,11.8831239 13.1939819,13.2130788 C13.1939819,14.5345183 11.9730573,15.6152035 10.483806,15.6152035"
                 id="Fill-16" />
              <path
                 d="M25.7938779,15.6152035 L22.7684759,15.6152035 C21.2792246,15.6152035 20.0498427,14.5345183 20.0498427,13.2130788 C20.0498427,11.8831239 21.2707673,10.7939234 22.7684759,10.7939234 L25.7938779,10.7939234 C27.2908176,10.7939234 28.5125111,11.8831239 28.5125111,13.2130788 C28.5125111,14.5345183 27.2831292,15.6152035 25.7938779,15.6152035"
                 id="Fill-18" />
            </g>
          </g>
        </g>
      </g>
    </g>
  </g>
</svg>
